<svg xmlns="http://www.w3.org/2000/svg" width="800" height="456" viewBox="0 0 800 456" font-family="system-ui, -apple-system, &quot;Segoe UI&quot;, Roboto, sans-serif" role="img" aria-labelledby="t d">
<title id="t">Native code compiled into your app</title>
<desc id="d">Non-blank lines of Swift / Obj-C / Kotlin / Java / C++ the package ships (tests excluded) — npm latest as of 2026-10-05 · benchmarks/size/measure.mjs · react-native-audio-api also fetches FFmpeg binaries at pod install</desc>
<rect x="0.5" y="0.5" width="799" height="455" rx="12" fill="#ffffff" stroke="rgba(11,11,11,0.10)"/>
<text x="24" y="36" font-size="17" font-weight="600" fill="#0b0b0b">Native code compiled into your app</text>
<text x="24" y="58" font-size="13" fill="#52514e">Non-blank lines of Swift / Obj-C / Kotlin / Java / C++ the package ships (tests excluded)</text>
<line x1="234" y1="84" x2="234" y2="392" stroke="#c3c2b7" stroke-width="1"/><text x="234" y="410" font-size="11" fill="#898781" text-anchor="middle" style="font-variant-numeric:tabular-nums">0</text><line x1="338" y1="84" x2="338" y2="392" stroke="#e1e0d9" stroke-width="1"/><text x="338" y="410" font-size="11" fill="#898781" text-anchor="middle" style="font-variant-numeric:tabular-nums">5,000</text><line x1="442" y1="84" x2="442" y2="392" stroke="#e1e0d9" stroke-width="1"/><text x="442" y="410" font-size="11" fill="#898781" text-anchor="middle" style="font-variant-numeric:tabular-nums">10,000</text><line x1="546" y1="84" x2="546" y2="392" stroke="#e1e0d9" stroke-width="1"/><text x="546" y="410" font-size="11" fill="#898781" text-anchor="middle" style="font-variant-numeric:tabular-nums">15,000</text><line x1="650" y1="84" x2="650" y2="392" stroke="#e1e0d9" stroke-width="1"/><text x="650" y="410" font-size="11" fill="#898781" text-anchor="middle" style="font-variant-numeric:tabular-nums">20,000</text><text x="650" y="76" font-size="11" fill="#898781" text-anchor="end">lines</text><text x="222" y="111.5" font-size="13" fill="#52514e" font-weight="400" text-anchor="end">react-native-sound</text><path d="M234.5,98h14.2624a4,4 0 0 1 4,4v10a4,4 0 0 1 -4,4h-14.2624z" fill="#c3c2b7"><title>react-native-sound: 878 lines</title></path><text x="260.2624" y="111.5" font-size="12" fill="#52514e" font-weight="400" style="font-variant-numeric:tabular-nums">878</text><text x="222" y="141.5" font-size="13" fill="#52514e" font-weight="400" text-anchor="end">react-native-audio-pro</text><path d="M234.5,128h52.8672a4,4 0 0 1 4,4v10a4,4 0 0 1 -4,4h-52.8672z" fill="#c3c2b7"><title>react-native-audio-pro: 2,734 lines</title></path><text x="298.8672" y="141.5" font-size="12" fill="#52514e" font-weight="400" style="font-variant-numeric:tabular-nums">2,734</text><text x="222" y="171.5" font-size="13" fill="#52514e" font-weight="400" text-anchor="end">RNTP 4</text><path d="M234.5,158h68.8a4,4 0 0 1 4,4v10a4,4 0 0 1 -4,4h-68.8z" fill="#c3c2b7"><title>RNTP 4: 3,500 lines</title></path><text x="314.8" y="171.5" font-size="12" fill="#52514e" font-weight="400" style="font-variant-numeric:tabular-nums">3,500</text><text x="222" y="201.5" font-size="13" fill="#52514e" font-weight="400" text-anchor="end">expo-audio</text><path d="M234.5,188h129.328a4,4 0 0 1 4,4v10a4,4 0 0 1 -4,4h-129.328z" fill="#c3c2b7"><title>expo-audio: 6,410 lines</title></path><text x="375.328" y="201.5" font-size="12" fill="#52514e" font-weight="400" style="font-variant-numeric:tabular-nums">6,410</text><text x="222" y="231.5" font-size="13" fill="#52514e" font-weight="400" text-anchor="end">react-native-nitro-sound</text><path d="M234.5,218h157.3664a4,4 0 0 1 4,4v10a4,4 0 0 1 -4,4h-157.3664z" fill="#c3c2b7"><title>react-native-nitro-sound: 7,758 lines</title></path><text x="403.3664" y="231.5" font-size="12" fill="#52514e" font-weight="400" style="font-variant-numeric:tabular-nums">7,758</text><text x="222" y="261.5" font-size="13" fill="#0b0b0b" font-weight="600" text-anchor="end">Airwave</text><path d="M234.5,248h158.2816a4,4 0 0 1 4,4v10a4,4 0 0 1 -4,4h-158.2816z" fill="#2a78d6"><title>Airwave: 7,802 lines</title></path><text x="404.2816" y="261.5" font-size="12" fill="#0b0b0b" font-weight="600" style="font-variant-numeric:tabular-nums">7,802</text><text x="222" y="291.5" font-size="13" fill="#52514e" font-weight="400" text-anchor="end">expo-av</text><path d="M234.5,278h176.128a4,4 0 0 1 4,4v10a4,4 0 0 1 -4,4h-176.128z" fill="#c3c2b7"><title>expo-av: 8,660 lines</title></path><text x="422.128" y="291.5" font-size="12" fill="#52514e" font-weight="400" style="font-variant-numeric:tabular-nums">8,660</text><text x="222" y="321.5" font-size="13" fill="#52514e" font-weight="400" text-anchor="end">react-native-video</text><path d="M234.5,308h241.12800000000001a4,4 0 0 1 4,4v10a4,4 0 0 1 -4,4h-241.12800000000001z" fill="#c3c2b7"><title>react-native-video: 11,785 lines</title></path><text x="487.12800000000004" y="321.5" font-size="12" fill="#52514e" font-weight="400" style="font-variant-numeric:tabular-nums">11,785</text><text x="222" y="351.5" font-size="13" fill="#52514e" font-weight="400" text-anchor="end">RNTP 5 (@rntp/player)</text><path d="M234.5,338h271.2256a4,4 0 0 1 4,4v10a4,4 0 0 1 -4,4h-271.2256z" fill="#c3c2b7"><title>RNTP 5 (@rntp/player): 13,232 lines</title></path><text x="517.2256" y="351.5" font-size="12" fill="#52514e" font-weight="400" style="font-variant-numeric:tabular-nums">13,232</text><text x="222" y="381.5" font-size="13" fill="#52514e" font-weight="400" text-anchor="end">react-native-audio-api</text><path d="M234.5,368h412a4,4 0 0 1 4,4v10a4,4 0 0 1 -4,4h-412z" fill="#c3c2b7"><title>react-native-audio-api: 164,791 lines</title></path><path d="M628,388l6,-22M634,388l6,-22" stroke="#ffffff" stroke-width="3"/><text x="658" y="381.5" font-size="12" fill="#52514e" font-weight="400" style="font-variant-numeric:tabular-nums">164,791 (off scale)</text>
<text x="24" y="438" font-size="11" fill="#898781">npm latest as of 2026-10-05 · benchmarks/size/measure.mjs · react-native-audio-api also fetches FFmpeg binaries at pod install</text>
</svg>
